<svg width="25" height="26" viewBox="0 0 25 26" fill="none" xmlns="http://www.w3.org/2000/svg">
<path d="M10.2266 11.1602H21.9453C22.0527 11.1602 22.1406 11.0687 22.1406 10.957V9.53516C22.1406 9.42344 22.0527 9.33203 21.9453 9.33203H10.2266C10.1191 9.33203 10.0312 9.42344 10.0312 9.53516V10.957C10.0312 11.0687 10.1191 11.1602 10.2266 11.1602ZM10.0312 16.3398C10.0312 16.4516 10.1191 16.543 10.2266 16.543H21.9453C22.0527 16.543 22.1406 16.4516 22.1406 16.3398V14.918C22.1406 14.8062 22.0527 14.7148 21.9453 14.7148H10.2266C10.1191 14.7148 10.0312 14.8062 10.0312 14.918V16.3398ZM22.3359 4H3.19531C3.08789 4 3 4.09141 3 4.20312V5.625C3 5.73672 3.08789 5.82812 3.19531 5.82812H22.3359C22.4434 5.82812 22.5312 5.73672 22.5312 5.625V4.20312C22.5312 4.09141 22.4434 4 22.3359 4ZM22.3359 20.0469H3.19531C3.08789 20.0469 3 20.1383 3 20.25V21.6719C3 21.7836 3.08789 21.875 3.19531 21.875H22.3359C22.4434 21.875 22.5312 21.7836 22.5312 21.6719V20.25C22.5312 20.1383 22.4434 20.0469 22.3359 20.0469ZM3.08301 13.1127L6.89893 16.2383C7.04053 16.3551 7.25049 16.251 7.25049 16.0631V9.81191C7.25049 9.62402 7.04297 9.51992 6.89893 9.63672L3.08301 12.7623C3.05735 12.7831 3.03659 12.8096 3.0223 12.84C3.00802 12.8703 3.0006 12.9037 3.0006 12.9375C3.0006 12.9713 3.00802 13.0047 3.0223 13.035C3.03659 13.0654 3.05735 13.0919 3.08301 13.1127Z" fill="#FDFDFD"/>
</svg>
