<svg width="178" height="49" viewBox="0 0 178 49" fill="none" xmlns="http://www.w3.org/2000/svg">
<path d="M28.1273 15V0.999999H31.7473L33.3473 5.32L34.9073 0.999999H38.5273V15H35.6273V5.88L33.3073 11.62L31.0073 5.88L30.9873 15H28.1273ZM51.7195 15.22C50.6662 15.22 49.7129 14.94 48.8595 14.38C48.0062 13.82 47.3262 13.0067 46.8195 11.94C46.3262 10.86 46.0795 9.54667 46.0795 8C46.0795 6.45333 46.3262 5.14667 46.8195 4.08C47.3262 3 48.0062 2.18 48.8595 1.62C49.7129 1.06 50.6662 0.779999 51.7195 0.779999C52.7729 0.779999 53.7262 1.06 54.5795 1.62C55.4329 2.18 56.1062 3 56.5995 4.08C57.1062 5.14667 57.3595 6.45333 57.3595 8C57.3595 9.54667 57.1062 10.86 56.5995 11.94C56.1062 13.0067 55.4329 13.82 54.5795 14.38C53.7262 14.94 52.7729 15.22 51.7195 15.22ZM51.7195 12.16C52.1329 12.16 52.4995 12.0133 52.8195 11.72C53.1529 11.4267 53.4129 10.9733 53.5995 10.36C53.7995 9.74667 53.8995 8.96 53.8995 8C53.8995 7.04 53.7995 6.25333 53.5995 5.64C53.4129 5.02667 53.1529 4.57333 52.8195 4.28C52.4995 3.98667 52.1329 3.84 51.7195 3.84C51.3062 3.84 50.9329 3.98667 50.5995 4.28C50.2795 4.57333 50.0195 5.02667 49.8195 5.64C49.6329 6.25333 49.5395 7.04 49.5395 8C49.5395 8.96 49.6329 9.74667 49.8195 10.36C50.0195 10.9733 50.2795 11.4267 50.5995 11.72C50.9329 12.0133 51.3062 12.16 51.7195 12.16ZM68.1517 15L64.1317 0.999999H67.5517L70.1517 11.18L72.8117 0.999999H76.0917L72.0717 15H68.1517ZM83.9839 15V0.999999H93.6639V3.88H87.4239V6.54H91.3639V9.34H87.4239V12.12H93.7439V15H83.9839ZM125.288 15.22C124.235 15.22 123.282 14.94 122.428 14.38C121.575 13.82 120.895 13.0067 120.388 11.94C119.895 10.86 119.648 9.54667 119.648 8C119.648 6.45333 119.895 5.14667 120.388 4.08C120.895 3 121.575 2.18 122.428 1.62C123.282 1.06 124.235 0.779999 125.288 0.779999C126.342 0.779999 127.295 1.06 128.148 1.62C129.002 2.18 129.675 3 130.168 4.08C130.675 5.14667 130.928 6.45333 130.928 8C130.928 9.54667 130.675 10.86 130.168 11.94C129.675 13.0067 129.002 13.82 128.148 14.38C127.295 14.94 126.342 15.22 125.288 15.22ZM125.288 12.16C125.702 12.16 126.068 12.0133 126.388 11.72C126.722 11.4267 126.982 10.9733 127.168 10.36C127.368 9.74667 127.468 8.96 127.468 8C127.468 7.04 127.368 6.25333 127.168 5.64C126.982 5.02667 126.722 4.57333 126.388 4.28C126.068 3.98667 125.702 3.84 125.288 3.84C124.875 3.84 124.502 3.98667 124.168 4.28C123.848 4.57333 123.588 5.02667 123.388 5.64C123.202 6.25333 123.108 7.04 123.108 8C123.108 8.96 123.202 9.74667 123.388 10.36C123.588 10.9733 123.848 11.4267 124.168 11.72C124.502 12.0133 124.875 12.16 125.288 12.16ZM138.62 15V0.999999H141.86L145.94 8.88L145.9 0.999999H148.74V15H145.7L141.42 6.82L141.46 15H138.62ZM4.01906 48V36.88H0.0190595V34H11.4591V36.88H7.45906V48H4.01906ZM19.6112 48V34H29.2912V36.88H23.0512V39.54H26.9912V42.34H23.0512V45.12H29.3712V48H19.6112ZM42.7234 48.22C41.6701 48.22 40.7168 47.94 39.8634 47.38C39.0234 46.82 38.3501 46.0067 37.8434 44.94C37.3501 43.86 37.1034 42.5467 37.1034 41C37.1034 39.4533 37.3501 38.1467 37.8434 37.08C38.3501 36 39.0234 35.18 39.8634 34.62C40.7168 34.06 41.6701 33.78 42.7234 33.78C43.5634 33.78 44.3434 33.9667 45.0634 34.34C45.7834 34.7133 46.3968 35.26 46.9034 35.98C47.4234 36.6867 47.7901 37.5533 48.0034 38.58L44.9834 39.36C44.8634 38.52 44.5968 37.8933 44.1834 37.48C43.7834 37.0533 43.3301 36.84 42.8234 36.84C42.3968 36.84 42.0101 36.98 41.6634 37.26C41.3301 37.54 41.0634 37.9867 40.8634 38.6C40.6634 39.2 40.5634 40 40.5634 41C40.5634 41.9867 40.6634 42.7867 40.8634 43.4C41.0634 44.0133 41.3301 44.46 41.6634 44.74C42.0101 45.02 42.3968 45.16 42.8234 45.16C43.3301 45.16 43.7834 44.9533 44.1834 44.54C44.5968 44.1133 44.8634 43.48 44.9834 42.64L48.0034 43.42C47.7901 44.4333 47.4234 45.3 46.9034 46.02C46.3968 46.74 45.7834 47.2867 45.0634 47.66C44.3434 48.0333 43.5634 48.22 42.7234 48.22ZM55.8356 48V34H59.2756V39.44H62.5556V34H65.9956V48H62.5556V42.46H59.2756V48H55.8356ZM74.2478 48V34H77.4878L81.5678 41.88L81.5278 34H84.3678V48H81.3278L77.0478 39.82L77.0878 48H74.2478ZM97.7 48.22C96.6467 48.22 95.6933 47.94 94.84 47.38C93.9867 46.82 93.3067 46.0067 92.8 44.94C92.3067 43.86 92.06 42.5467 92.06 41C92.06 39.4533 92.3067 38.1467 92.8 37.08C93.3067 36 93.9867 35.18 94.84 34.62C95.6933 34.06 96.6467 33.78 97.7 33.78C98.7533 33.78 99.7067 34.06 100.56 34.62C101.413 35.18 102.087 36 102.58 37.08C103.087 38.1467 103.34 39.4533 103.34 41C103.34 42.5467 103.087 43.86 102.58 44.94C102.087 46.0067 101.413 46.82 100.56 47.38C99.7067 47.94 98.7533 48.22 97.7 48.22ZM97.7 45.16C98.1133 45.16 98.48 45.0133 98.8 44.72C99.1333 44.4267 99.3933 43.9733 99.58 43.36C99.78 42.7467 99.88 41.96 99.88 41C99.88 40.04 99.78 39.2533 99.58 38.64C99.3933 38.0267 99.1333 37.5733 98.8 37.28C98.48 36.9867 98.1133 36.84 97.7 36.84C97.2867 36.84 96.9133 36.9867 96.58 37.28C96.26 37.5733 96 38.0267 95.8 38.64C95.6133 39.2533 95.52 40.04 95.52 41C95.52 41.96 95.6133 42.7467 95.8 43.36C96 43.9733 96.26 44.4267 96.58 44.72C96.9133 45.0133 97.2867 45.16 97.7 45.16ZM111.572 48V34H115.012V45.12H121.332V48H111.572ZM134.484 48.22C133.431 48.22 132.478 47.94 131.624 47.38C130.771 46.82 130.091 46.0067 129.584 44.94C129.091 43.86 128.844 42.5467 128.844 41C128.844 39.4533 129.091 38.1467 129.584 37.08C130.091 36 130.771 35.18 131.624 34.62C132.478 34.06 133.431 33.78 134.484 33.78C135.538 33.78 136.491 34.06 137.344 34.62C138.198 35.18 138.871 36 139.364 37.08C139.871 38.1467 140.124 39.4533 140.124 41C140.124 42.5467 139.871 43.86 139.364 44.94C138.871 46.0067 138.198 46.82 137.344 47.38C136.491 47.94 135.538 48.22 134.484 48.22ZM134.484 45.16C134.898 45.16 135.264 45.0133 135.584 44.72C135.918 44.4267 136.178 43.9733 136.364 43.36C136.564 42.7467 136.664 41.96 136.664 41C136.664 40.04 136.564 39.2533 136.364 38.64C136.178 38.0267 135.918 37.5733 135.584 37.28C135.264 36.9867 134.898 36.84 134.484 36.84C134.071 36.84 133.698 36.9867 133.364 37.28C133.044 37.5733 132.784 38.0267 132.584 38.64C132.398 39.2533 132.304 40.04 132.304 41C132.304 41.96 132.398 42.7467 132.584 43.36C132.784 43.9733 133.044 44.4267 133.364 44.72C133.698 45.0133 134.071 45.16 134.484 45.16ZM153.037 48.22C151.983 48.22 151.03 47.94 150.177 47.38C149.323 46.82 148.643 46.0067 148.137 44.94C147.643 43.86 147.397 42.5467 147.397 41C147.397 39.4533 147.643 38.1467 148.137 37.08C148.643 36 149.317 35.18 150.157 34.62C151.01 34.06 151.963 33.78 153.017 33.78C154.123 33.78 155.123 34.1067 156.017 34.76C156.91 35.4133 157.577 36.3467 158.017 37.56L155.097 38.54C154.91 37.9667 154.637 37.54 154.277 37.26C153.93 36.98 153.543 36.84 153.117 36.84C152.69 36.84 152.303 36.98 151.957 37.26C151.623 37.54 151.357 37.9867 151.157 38.6C150.957 39.2 150.857 40 150.857 41C150.857 41.9867 150.957 42.7867 151.157 43.4C151.357 44.0133 151.63 44.46 151.977 44.74C152.337 45.02 152.743 45.16 153.197 45.16C153.543 45.16 153.857 45.06 154.137 44.86C154.417 44.66 154.65 44.3867 154.837 44.04C155.037 43.68 155.163 43.28 155.217 42.84H152.997V39.96H158.357V40.94C158.357 42.4733 158.137 43.7867 157.697 44.88C157.257 45.96 156.637 46.7867 155.837 47.36C155.05 47.9333 154.117 48.22 153.037 48.22ZM169.549 48V42.26L165.169 34H168.829L171.369 39.04L173.929 34H177.369L172.989 42.26V48H169.549Z" fill="white"/>
</svg>
