<svg width="35" height="37" viewBox="0 0 35 37" fill="none" xmlns="http://www.w3.org/2000/svg">
<path d="M12.7359 30.2167C13.3266 30.2167 13.8054 29.7105 13.8054 29.0861C13.8054 28.4617 13.3266 27.9556 12.7359 27.9556C12.1453 27.9556 11.6665 28.4617 11.6665 29.0861C11.6665 29.7105 12.1453 30.2167 12.7359 30.2167Z" stroke="white" stroke-width="3" stroke-linecap="round" stroke-linejoin="round"/>
<path d="M22.6173 30.2167C23.2079 30.2167 23.6867 29.7105 23.6867 29.0861C23.6867 28.4617 23.2079 27.9556 22.6173 27.9556C22.0267 27.9556 21.5479 28.4617 21.5479 29.0861C21.5479 29.7105 22.0267 30.2167 22.6173 30.2167Z" stroke="white" stroke-width="3" stroke-linecap="round" stroke-linejoin="round"/>
<path d="M2.38672 2.46667H6.89217L9.91083 21.5494C10.0138 22.2056 10.2959 22.795 10.7078 23.2144C11.1196 23.6339 11.635 23.8567 12.1636 23.8439H23.1118C23.6404 23.8567 24.1557 23.6339 24.5676 23.2144C24.9794 22.795 25.2615 22.2056 25.3645 21.5494L27.1667 9.59243H8.01854" stroke="white" stroke-width="3" stroke-linecap="round" stroke-linejoin="round"/>
<rect width="35" height="37" stroke="black"/>
</svg>
